<svg height="341pt" viewBox="0 -3 341.33333 341" width="341pt" xmlns="http://www.w3.org/2000/svg"><g fill="#0e65e5"><path d="m239.09375 327.847656h-218.773438c-7.453124 0-13.492187-6.039062-13.492187-13.492187v-218.777344c0-7.449219 6.039063-13.492187 13.492187-13.492187h218.773438c7.453125 0 13.496094 6.039062 13.496094 13.492187v218.777344c-.003906 7.453125-6.042969 13.492187-13.496094 13.492187zm0 0"/><path d="m239.09375 334.671875h-218.773438c-11.207031 0-20.320312-9.117187-20.320312-20.316406v-218.777344c0-11.199219 9.113281-20.316406 20.320312-20.316406h218.773438c11.207031 0 20.320312 9.117187 20.320312 20.316406v218.777344c0 11.199219-9.113281 20.316406-20.320312 20.316406zm-218.773438-245.757813c-3.671874 0-6.667968 2.988282-6.667968 6.664063v218.777344c0 3.675781 2.996094 6.664062 6.667968 6.664062h218.773438c3.671875 0 6.667969-2.988281 6.667969-6.664062v-218.777344c0-3.675781-2.996094-6.664063-6.667969-6.664063zm0 0"/><path d="m293.546875 47.953125c-1.746094 0-3.492187-.667969-4.828125-2-2.664062-2.664063-2.664062-6.988281 0-9.652344l17.066406-17.066406c2.667969-2.667969 6.988282-2.667969 9.65625 0 2.664063 2.664063 2.664063 6.984375 0 9.652344l-17.066406 17.066406c-1.335938 1.332031-3.082031 2-4.828125 2zm0 0"/><path d="m259.414062 41.125c-3.773437 0-6.828124-3.054688-6.828124-6.824219v-27.308593c0-3.769532 3.054687-6.824219 6.828124-6.824219 3.773438 0 6.824219 3.054687 6.824219 6.824219v27.308593c0 3.769531-3.050781 6.824219-6.824219 6.824219zm0 0"/><path d="m334.507812 75.261719h-27.308593c-3.773438 0-6.824219-3.058594-6.824219-6.828125 0-3.769532 3.050781-6.828125 6.824219-6.828125h27.308593c3.773438 0 6.824219 3.058593 6.824219 6.828125 0 3.769531-3.050781 6.828125-6.824219 6.828125zm0 0"/></g><path d="m259.574219 307.367188h-218.773438c-7.453125 0-13.492187-6.039063-13.492187-13.492188v-218.777344c0-7.449218 6.039062-13.492187 13.492187-13.492187h218.773438c7.453125 0 13.496093 6.042969 13.496093 13.492187v218.777344c-.003906 7.453125-6.042968 13.492188-13.496093 13.492188zm0 0" fill="#94c1ff"/><path d="m259.574219 314.191406h-218.773438c-11.207031 0-20.320312-9.113281-20.320312-20.316406v-218.777344c0-11.199218 9.113281-20.316406 20.320312-20.316406h218.773438c11.207031 0 20.320312 9.117188 20.320312 20.316406v218.777344c0 11.203125-9.113281 20.316406-20.320312 20.316406zm-218.773438-245.757812c-3.675781 0-6.667969 2.988281-6.667969 6.664062v218.777344c0 3.675781 2.992188 6.664062 6.667969 6.664062h218.773438c3.671875 0 6.664062-2.988281 6.664062-6.664062v-218.777344c0-3.675781-2.992187-6.664062-6.664062-6.664062zm0 0" fill="#0e65e5"/><path d="m143.359375 321.019531c-3.773437 0-6.824219-3.054687-6.824219-6.828125v-27.304687c0-3.769531 3.050782-6.828125 6.824219-6.828125s6.828125 3.058594 6.828125 6.828125v27.304687c0 3.773438-3.054688 6.828125-6.828125 6.828125zm0 0" fill="#fff"/><path d="m157.011719 307.367188h-27.304688c-3.773437 0-6.828125-3.058594-6.828125-6.828126 0-3.769531 3.054688-6.824218 6.828125-6.824218h27.304688c3.773437 0 6.828125 3.054687 6.828125 6.824218 0 3.769532-3.054688 6.828126-6.828125 6.828126zm0 0" fill="#fff"/><path d="m54.613281 143.527344c-3.773437 0-6.828125-3.058594-6.828125-6.828125v-47.785157c0-3.769531 3.054688-6.828124 6.828125-6.828124h47.785157c3.773437 0 6.828124 3.058593 6.828124 6.828124 0 3.769532-3.054687 6.824219-6.828124 6.824219h-40.957032v40.960938c0 3.769531-3.054687 6.828125-6.828125 6.828125zm0 0" fill="#fff"/></svg>